<?xml version="1.0" encoding="UTF-8"?>
<svg id="Layer_2" data-name="Layer 2" xmlns="http://www.w3.org/2000/svg" viewBox="0 0 202.27 31.46">
  <defs>
    <style>
      .cls-1 {
        fill: #2c2937;
      }
    </style>
  </defs>
  <g id="Ukrasi">
    <g>
      <g>
        <g>
          <path class="cls-1" d="M58.25,6.94c1.54,1.74-.88,3.53-2.36,1.94-1.42-1.54-2.99-1.85-4.76-1.85-3.62,0-6.01,2.51-6.01,6.24,0,4.02,2.45,6.66,6.15,6.66,1.79,0,3.73-1.03,4.81-2.34,1.54-1.85,3.99-.23,2.59,1.71-1.57,2.19-4.67,3.53-7.46,3.53-5.61,0-9.37-3.82-9.37-9.57s4.04-9.14,9.31-9.14c2.79,0,5.24.74,7.09,2.82Z"/>
          <path class="cls-1" d="M75.05,9.53v11.54c0,.88-.66,1.48-1.62,1.48s-1.48-.48-1.59-1.2c-1.31,1.03-3.02,1.48-4.44,1.48-4.13,0-6.64-2.99-6.64-7.58s2.82-7.49,7.01-7.49c1.22,0,2.82.46,4.07,1.42.14-.68.68-1.14,1.59-1.14.97,0,1.62.6,1.62,1.48ZM71.8,17.77v-4.93c-.71-1.4-2.34-2.19-3.82-2.19-2.39,0-3.99,1.94-3.99,4.64s1.48,4.67,3.73,4.67c1.68,0,3.42-.74,4.07-2.19Z"/>
          <path class="cls-1" d="M93.45,15.15c0,4.59-2.76,7.69-6.89,7.69-1.28,0-2.93-.46-4.19-1.31v4.36c0,.94-.8,1.45-1.59,1.45s-1.62-.51-1.62-1.45V9.51c0-.91.63-1.45,1.65-1.45.85,0,1.37.34,1.51,1,1.31-.94,2.85-1.28,4.13-1.28,4.22,0,7.01,2.99,7.01,7.38ZM90.2,15.17c0-2.71-1.59-4.53-3.99-4.53-1.51,0-3.13.83-3.85,2.25v4.73c.6,1.48,2.36,2.34,4.1,2.34,2.25,0,3.73-1.94,3.73-4.78Z"/>
          <path class="cls-1" d="M98,7.34c-.85,0-1.65-.46-1.65-1.42v-.37c0-.97.8-1.42,1.65-1.42.8,0,1.65.46,1.65,1.42v.37c0,.97-.85,1.42-1.65,1.42ZM98,8.05c.8,0,1.62.48,1.62,1.37v11.74c0,.94-.83,1.4-1.62,1.4s-1.62-.46-1.62-1.4v-11.71c0-.91.85-1.4,1.62-1.4Z"/>
          <path class="cls-1" d="M111.33,20.99c0,.48-.28,1.03-.94,1.37-.85.46-1.42.48-2.34.48-3.7,0-4.59-2.59-4.59-5.35v-6.72h-1.08c-1.05,0-1.57-.68-1.57-1.34s.54-1.37,1.57-1.37h1.08v-2.45c0-.97.77-1.48,1.59-1.48s1.62.51,1.62,1.48v2.45h2.22c1,0,1.54.68,1.54,1.37s-.54,1.34-1.54,1.34h-2.22v6.72c0,1.25.14,2.56,1.37,2.56.28,0,.71-.11.91-.2,1.28-.71,2.36.14,2.36,1.14Z"/>
          <path class="cls-1" d="M126.37,9.53v11.54c0,.88-.66,1.48-1.62,1.48s-1.48-.48-1.59-1.2c-1.31,1.03-3.02,1.48-4.44,1.48-4.13,0-6.64-2.99-6.64-7.58s2.82-7.49,7.01-7.49c1.22,0,2.82.46,4.07,1.42.14-.68.68-1.14,1.59-1.14.97,0,1.62.6,1.62,1.48ZM123.12,17.77v-4.93c-.71-1.4-2.34-2.19-3.82-2.19-2.39,0-3.99,1.94-3.99,4.64s1.48,4.67,3.73,4.67c1.68,0,3.42-.74,4.07-2.19Z"/>
          <path class="cls-1" d="M131.67,22.55c-.97,0-1.62-.66-1.62-1.42V5.55c0-.77.66-1.42,1.62-1.42.91,0,1.62.66,1.62,1.42v15.58c0,.77-.71,1.42-1.62,1.42Z"/>
        </g>
        <g>
          <path class="cls-1" d="M139.04,21.56c0,.65-.51,1-1.05,1-.51,0-1.03-.34-1.03-.97V5.43c0-.6.43-1,1.05-1h6.75c4.93,0,7.43,2.79,7.43,6.12,0,2.88-1.57,4.96-5.07,5.55l4.36,4.7c.8.8.11,1.74-.66,1.74-.26,0-.54-.11-.77-.37l-5.5-5.95h-5.53v5.33ZM144.8,14.43c3.67,0,5.3-1.68,5.3-3.76-.03-2.45-1.99-4.33-5.3-4.33h-5.75v8.09h5.75Z"/>
          <path class="cls-1" d="M168.01,16.57h-11.25c.37,2.34,2.36,4.36,5.21,4.36,1.31,0,2.68-.34,3.79-1.2,1-.91,2.48.26,1.37,1.4-1.31,1.22-3.22,1.74-5.07,1.71-4.5,0-7.41-3.25-7.41-7.55,0-4.81,3.62-7.43,7.26-7.43,3.85,0,7.41,2.25,7.49,7.41,0,.63-.23,1.31-1.4,1.31ZM167.41,14.83c-.28-3.42-2.96-5.04-5.35-5.04-2.68,0-5.13,1.62-5.38,5.04h10.74Z"/>
          <path class="cls-1" d="M172.22,8.14c.34,0,.71.17.88.57l5.44,10.85,5.5-10.88c.14-.37.51-.54.88-.54.63,0,1.28.51.97,1.25l-6.44,12.79c-.2.4-.57.66-.97.66-.31,0-.65-.2-.91-.63l-6.44-12.73c-.28-.77.4-1.34,1.08-1.34Z"/>
          <path class="cls-1" d="M187.4,15.15c0-4.13,3.16-7.29,7.43-7.29s7.43,3.36,7.43,7.43c0,4.33-3.13,7.55-7.43,7.55-4.53,0-7.43-3.45-7.43-7.69ZM189.51,15.37c0,3.05,2.14,5.5,5.33,5.5s5.36-2.59,5.36-5.44c0-3.85-2.71-5.64-5.38-5.64s-5.3,1.88-5.3,5.58Z"/>
        </g>
      </g>
      <g>
        <polygon class="cls-1" points="10.94 0 0 10.89 0 31.46 10.94 20.78 10.94 10.89 20.88 10.89 31.82 0 10.94 0"/>
        <polygon class="cls-1" points="20.88 10.89 10.94 20.78 10.94 31.46 21.88 31.46 21.88 21.77 31.99 21.77 31.99 10.89 20.88 10.89"/>
      </g>
    </g>
  </g>
</svg>