<?xml version="1.0" encoding="UTF-8"?>
<svg id="Layer_2" data-name="Layer 2" xmlns="http://www.w3.org/2000/svg" viewBox="0 0 375.78 56.43">
  <defs>
    <style>
      .cls-1 {
        fill: #2c2937;
      }

      .cls-2 {
        fill: #b22028;
      }
    </style>
  </defs>
  <g id="Layer_1-2" data-name="Layer 1">
    <g>
      <path class="cls-1" d="M63.97,40.17c-1.34-1.28-2.02-3.07-2.02-5.37V10.9c0-.9.29-1.6.86-2.11.58-.51,1.34-.77,2.3-.77s1.73.26,2.33.79c.59.53.89,1.22.89,2.09v23.89c0,.74.18,1.31.55,1.73.37.42.87.62,1.51.62h15.35c.96,0,1.69.22,2.21.65.51.43.77,1.05.77,1.85s-.26,1.37-.79,1.8-1.26.65-2.18.65h-16.12c-2.43,0-4.32-.64-5.66-1.92Z"/>
      <path class="cls-1" d="M93.86,41.8c-.54-.51-.82-1.21-.82-2.11v-18.71c0-.89.27-1.6.82-2.11.54-.51,1.31-.77,2.3-.77s1.73.26,2.3.77c.58.51.86,1.22.86,2.11v18.71c0,.9-.29,1.6-.86,2.11-.58.51-1.34.77-2.3.77s-1.76-.26-2.3-.77Z"/>
      <path class="cls-1" d="M105.66,41.8c-.58-.51-.86-1.21-.86-2.11v-18.09c0-4.25,1.33-7.58,3.98-9.98,2.65-2.4,6.33-3.6,11.04-3.6s8.38,1.2,11.04,3.6c2.65,2.4,3.98,5.73,3.98,9.98v18.09c0,.9-.29,1.6-.86,2.11-.58.51-1.34.77-2.3.77s-1.74-.26-2.33-.79c-.59-.53-.89-1.22-.89-2.09v-18.23c0-2.72-.74-4.8-2.21-6.24s-3.61-2.16-6.43-2.16-4.96.72-6.43,2.16c-1.47,1.44-2.21,3.52-2.21,6.24v18.23c0,.86-.3,1.56-.89,2.09-.59.53-1.37.79-2.33.79s-1.73-.26-2.3-.77Z"/>
      <path class="cls-1" d="M147.21,40.5c-2.66-1.38-4.69-3.36-6.09-5.95-1.41-2.59-2.11-5.66-2.11-9.21s.7-6.63,2.11-9.24c1.41-2.61,3.43-4.61,6.07-6s5.75-2.09,9.33-2.09c2.97,0,5.73.51,8.25,1.54,2.53,1.02,4.4,2.38,5.61,4.08.38.51.58,1.04.58,1.58,0,.8-.43,1.52-1.3,2.16-.38.29-.86.43-1.44.43-.48,0-.96-.1-1.44-.31-.48-.21-.88-.5-1.2-.89-1.09-1.25-2.35-2.15-3.79-2.71-1.44-.56-3.2-.84-5.28-.84-3.49,0-6.21,1.08-8.16,3.24-1.95,2.16-2.93,5.17-2.93,9.04s.98,6.83,2.95,8.97c1.97,2.14,4.71,3.21,8.23,3.21,4.03,0,7.25-1.18,9.64-3.55.99-.93,1.9-1.39,2.73-1.39.58,0,1.1.19,1.58.58.74.64,1.1,1.34,1.1,2.11,0,.58-.21,1.14-.62,1.68-1.38,1.76-3.33,3.13-5.88,4.13-2.54.99-5.4,1.49-8.56,1.49-3.61,0-6.75-.69-9.4-2.06Z"/>
      <path class="cls-1" d="M184.37,40.38c-2.7-1.46-4.76-3.49-6.17-6.09-1.41-2.61-2.11-5.61-2.11-9s.7-6.39,2.11-9c1.41-2.61,3.46-4.64,6.17-6.09,2.7-1.46,5.93-2.18,9.67-2.18s6.96.73,9.67,2.18c2.7,1.46,4.76,3.49,6.17,6.09,1.41,2.61,2.11,5.61,2.11,9s-.7,6.39-2.11,9c-1.41,2.61-3.46,4.64-6.17,6.09-2.7,1.46-5.93,2.18-9.67,2.18s-6.96-.73-9.67-2.18ZM202.53,34.24c2.02-2.19,3.02-5.17,3.02-8.95s-1.05-6.8-3.14-8.97c-2.1-2.17-5.05-3.26-8.85-3.26-3.49,0-6.2,1.11-8.13,3.33-1.94,2.22-2.9,5.19-2.9,8.9s1.01,6.76,3.02,8.95c2.01,2.19,4.85,3.29,8.49,3.29s6.48-1.1,8.49-3.29Z"/>
      <path class="cls-1" d="M224.89,40.41c-2.46-1.44-4.37-3.46-5.73-6.07-1.36-2.61-2.04-5.61-2.04-9s.68-6.45,2.04-9.07c1.36-2.62,3.27-4.65,5.73-6.09s5.29-2.16,8.49-2.16c2.69,0,5.15.46,7.39,1.37,2.24.91,4.01,2.17,5.33,3.77.22.26.34.54.34.86,0,.38-.14.67-.43.86-.19.16-.46.24-.82.24-.48,0-.83-.16-1.06-.48-.99-1.34-2.44-2.39-4.34-3.14-1.9-.75-4.04-1.13-6.41-1.13-2.78,0-5.21.61-7.27,1.82-2.06,1.22-3.65,2.95-4.75,5.21s-1.66,4.9-1.66,7.94.55,5.68,1.66,7.92c1.1,2.24,2.69,3.96,4.75,5.16,2.06,1.2,4.49,1.8,7.27,1.8,2.56,0,4.82-.37,6.79-1.1,1.97-.74,3.45-1.79,4.44-3.17.26-.35.62-.53,1.1-.53.26,0,.51.1.77.29.29.22.43.53.43.91,0,.26-.11.53-.34.82-1.28,1.57-3.1,2.82-5.47,3.74-2.37.93-4.94,1.39-7.72,1.39-3.2,0-6.03-.72-8.49-2.16Z"/>
      <path class="cls-1" d="M253.73,40.5c-1.76-1.38-2.64-3.29-2.64-5.76s.91-4.4,2.73-5.81c1.82-1.41,4.35-2.11,7.58-2.11,1.98,0,3.77.27,5.37.82,1.6.54,2.78,1.3,3.55,2.26v-3.5c0-1.98-.65-3.48-1.94-4.49-1.3-1.01-3.21-1.51-5.73-1.51-3.01,0-5.73.75-8.16,2.25-.42.26-.74.38-.96.38-.19,0-.42-.08-.67-.24-.29-.19-.43-.5-.43-.91,0-.35.11-.62.34-.82,1.18-.93,2.65-1.66,4.39-2.18,1.74-.53,3.54-.79,5.4-.79,3.26,0,5.78.74,7.56,2.21,1.78,1.47,2.66,3.57,2.66,6.29v14.44c0,1.02-.4,1.54-1.2,1.54s-1.2-.51-1.2-1.54v-2.16c-.99,1.18-2.28,2.1-3.86,2.74-1.58.64-3.37.96-5.35.96-3.2,0-5.68-.69-7.44-2.06ZM267.86,38.66c1.68-1.07,2.52-2.49,2.52-4.25,0-1.66-.8-2.96-2.4-3.89-1.6-.93-3.84-1.39-6.72-1.39-2.5,0-4.4.48-5.71,1.44-1.31.96-1.97,2.35-1.97,4.17,0,3.68,2.53,5.52,7.58,5.52,2.78,0,5.01-.54,6.69-1.61Z"/>
      <path class="cls-1" d="M280.31,54.9V19.63c0-1.02.4-1.54,1.2-1.54s1.25.51,1.25,1.54v3.89c2.37-3.61,6.06-5.42,11.08-5.42,3.93,0,7.01,1.06,9.24,3.19,2.22,2.13,3.33,5.06,3.33,8.8,0,2.53-.51,4.73-1.54,6.62-1.02,1.89-2.49,3.33-4.39,4.34-1.9,1.01-4.13,1.51-6.69,1.51-2.34,0-4.4-.44-6.19-1.32-1.79-.88-3.39-2.21-4.8-4.01l-.05,17.66c0,1.02-.42,1.54-1.25,1.54s-1.2-.51-1.2-1.54ZM301.25,37.53c1.78-1.82,2.66-4.35,2.66-7.58s-.86-5.47-2.57-7.1c-1.71-1.63-4.21-2.45-7.51-2.45-3.46,0-6.17.86-8.13,2.59-1.97,1.73-2.95,4.09-2.95,7.1,0,2.02.46,3.79,1.39,5.33s2.23,2.73,3.91,3.57c1.68.85,3.62,1.27,5.83,1.27,3.13,0,5.59-.91,7.36-2.73Z"/>
      <path class="cls-1" d="M313.36,11.91c-.42-.42-.62-.88-.62-1.39,0-.54.21-1.02.62-1.42.42-.4.88-.6,1.39-.6s.99.21,1.44.62c.45.42.67.88.67,1.39s-.22.98-.67,1.39c-.45.42-.93.62-1.44.62s-.98-.21-1.39-.62ZM313.56,41.03v-21.4c0-1.02.4-1.54,1.2-1.54s1.25.51,1.25,1.54v21.4c0,1.02-.42,1.54-1.25,1.54s-1.2-.51-1.2-1.54Z"/>
      <path class="cls-1" d="M339.22,38.68c0,.26-.11.54-.34.86-.61.9-1.48,1.62-2.62,2.18-1.14.56-2.31.84-3.53.84-1.92,0-3.45-.61-4.58-1.82-1.14-1.21-1.7-2.85-1.7-4.89v-15.11h-2.78c-.51,0-.88-.09-1.1-.26-.22-.17-.34-.46-.34-.84,0-.7.48-1.06,1.44-1.06h2.78v-8.54c0-1.02.42-1.54,1.25-1.54s1.2.51,1.2,1.54v8.54h7.25c.96,0,1.44.35,1.44,1.06,0,.38-.11.66-.34.84-.22.18-.59.26-1.1.26h-7.25v15.3c0,2.82,1.28,4.22,3.84,4.22.89,0,1.66-.15,2.3-.46.64-.3,1.28-.82,1.92-1.56.38-.42.75-.62,1.1-.62.26,0,.5.1.72.29.29.22.43.48.43.77Z"/>
      <path class="cls-1" d="M345.8,40.5c-1.76-1.38-2.64-3.29-2.64-5.76s.91-4.4,2.73-5.81c1.82-1.41,4.35-2.11,7.58-2.11,1.98,0,3.77.27,5.37.82,1.6.54,2.78,1.3,3.55,2.26v-3.5c0-1.98-.65-3.48-1.94-4.49-1.3-1.01-3.21-1.51-5.73-1.51-3.01,0-5.73.75-8.16,2.25-.42.26-.74.38-.96.38-.19,0-.42-.08-.67-.24-.29-.19-.43-.5-.43-.91,0-.35.11-.62.34-.82,1.18-.93,2.65-1.66,4.39-2.18,1.74-.53,3.54-.79,5.4-.79,3.26,0,5.78.74,7.56,2.21,1.78,1.47,2.66,3.57,2.66,6.29v14.44c0,1.02-.4,1.54-1.2,1.54s-1.2-.51-1.2-1.54v-2.16c-.99,1.18-2.28,2.1-3.86,2.74-1.58.64-3.37.96-5.35.96-3.2,0-5.68-.69-7.44-2.06ZM359.93,38.66c1.68-1.07,2.52-2.49,2.52-4.25,0-1.66-.8-2.96-2.4-3.89-1.6-.93-3.84-1.39-6.72-1.39-2.5,0-4.4.48-5.71,1.44-1.31.96-1.97,2.35-1.97,4.17,0,3.68,2.53,5.52,7.58,5.52,2.78,0,5.01-.54,6.69-1.61Z"/>
      <path class="cls-1" d="M373.34,41.03V7.21c0-1.02.4-1.54,1.2-1.54s1.25.51,1.25,1.54v33.83c0,1.02-.42,1.54-1.25,1.54s-1.2-.51-1.2-1.54Z"/>
    </g>
    <g>
      <path class="cls-1" d="M14.25,19.69V7.19C14.25,3.25,11.06.06,7.13.06h0C3.19.06,0,3.25,0,7.19v27.49c0,3.94,3.19,7.13,7.13,7.13h27.49c3.94,0,7.13-3.19,7.13-7.13v-.73c0-3.94-3.19-7.13-7.13-7.13h-13.23c-3.94,0-7.13-3.19-7.13-7.13Z"/>
      <rect class="cls-2" x="20.13" y="0" width="21.63" height="21.63" rx="10.81" ry="10.81"/>
    </g>
    <circle class="cls-2" cx="96.18" cy="9.67" r="5.32"/>
  </g>
</svg>