<?xml version="1.0" encoding="UTF-8"?>
<svg id="Layer_2" data-name="Layer 2" xmlns="http://www.w3.org/2000/svg" viewBox="0 0 348.03 59.95">
  <defs>
    <style>
      .cls-1 {
        fill: #2c2937;
      }

      .cls-2 {
        fill: #b22028;
      }
    </style>
  </defs>
  <g id="Layer_1-2" data-name="Layer 1">
    <g>
      <path class="cls-1" d="M230.11,50.89c-3.05,0-5.58-.58-7.59-1.74-2.01-1.16-3.51-2.79-4.51-4.88-1-2.1-1.5-4.55-1.5-7.37,0-3.08.47-5.76,1.41-8.05s2.41-4.05,4.4-5.3c1.99-1.25,4.58-1.87,7.74-1.87,1.64,0,3.13.12,4.47.35,1.33.24,2.59.56,3.76.97v3.17c-1.17-.44-2.42-.78-3.74-1.03-1.32-.25-2.71-.37-4.18-.37-2.55,0-4.58.48-6.07,1.45-1.5.97-2.57,2.36-3.21,4.18s-.97,3.99-.97,6.51c0,3.49.83,6.18,2.49,8.07,1.66,1.89,4.27,2.84,7.85,2.84,1.32,0,2.66-.1,4.03-.31,1.36-.2,2.63-.53,3.81-.97v3.21c-1.14.35-2.38.63-3.72.84-1.33.21-2.82.31-4.47.31Z"/>
      <path class="cls-1" d="M249.61,50.89c-1.32,0-2.54-.24-3.65-.7-1.12-.47-2.01-1.17-2.68-2.09-.67-.92-1.01-2.09-1.01-3.5,0-1.91.63-3.47,1.89-4.69,1.26-1.22,3.31-1.83,6.16-1.83h7.26v-1.28c0-1.14-.15-2.05-.46-2.73-.31-.67-.89-1.16-1.74-1.45s-2.1-.44-3.74-.44c-1.26,0-2.48.1-3.65.31-1.17.21-2.27.48-3.3.84v-2.99c.94-.35,2.05-.64,3.32-.86,1.28-.22,2.65-.33,4.11-.33,2.96,0,5.18.6,6.67,1.8,1.48,1.2,2.22,3.15,2.22,5.85v13.64h-3.04l-.26-2.38c-.91.94-2.01,1.64-3.3,2.11-1.29.47-2.89.7-4.8.7ZM250.53,47.94c1.53,0,2.88-.27,4.05-.81s2.17-1.28,2.99-2.22v-4.05h-7.17c-1.64,0-2.82.31-3.52.92-.7.62-1.06,1.56-1.06,2.82s.42,2.13,1.28,2.62c.85.48,1.99.73,3.43.73Z"/>
      <path class="cls-1" d="M266.5,59.95v-30.36h3.08l.26,2.2c.97-.91,2.03-1.58,3.19-2,1.16-.42,2.52-.64,4.07-.64,2.93,0,5.24.81,6.91,2.44s2.51,4.33,2.51,8.12-.84,6.56-2.51,8.4c-1.67,1.85-3.99,2.77-6.95,2.77-2.73,0-5.05-.66-6.95-1.98v11.04h-3.61ZM276.09,47.99c2.35,0,4.07-.67,5.17-2,1.1-1.33,1.65-3.42,1.65-6.27s-.51-4.69-1.54-5.87c-1.03-1.19-2.76-1.78-5.19-1.78-1.2,0-2.32.21-3.34.62-1.03.41-1.94,1.04-2.73,1.89v11.35c.73.65,1.6,1.15,2.6,1.52,1,.37,2.13.55,3.39.55Z"/>
      <path class="cls-1" d="M292.81,50.45v-18h-3.21l.35-2.86h6.47v20.86h-3.61ZM292.46,24.71v-3.3h4v3.3h-4Z"/>
      <path class="cls-1" d="M309.8,50.89c-2.05,0-3.6-.55-4.64-1.65-1.04-1.1-1.56-2.63-1.56-4.6v-12.19h-3.17v-2.86h3.17v-5.15l3.61-1.1v6.25h5.76l-.22,2.86h-5.54v12.01c0,1.26.29,2.16.86,2.71s1.56.81,2.97.81c.76,0,1.6-.15,2.51-.44v2.73c-1.09.41-2.33.62-3.74.62Z"/>
      <path class="cls-1" d="M323.74,50.89c-1.32,0-2.54-.24-3.65-.7-1.12-.47-2.01-1.17-2.68-2.09s-1.01-2.09-1.01-3.5c0-1.91.63-3.47,1.89-4.69,1.26-1.22,3.31-1.83,6.16-1.83h7.26v-1.28c0-1.14-.15-2.05-.46-2.73-.31-.67-.89-1.16-1.74-1.45-.85-.29-2.1-.44-3.74-.44-1.26,0-2.48.1-3.65.31-1.17.21-2.27.48-3.3.84v-2.99c.94-.35,2.05-.64,3.32-.86,1.28-.22,2.65-.33,4.11-.33,2.96,0,5.18.6,6.67,1.8,1.48,1.2,2.22,3.15,2.22,5.85v13.64h-3.04l-.26-2.38c-.91.94-2.01,1.64-3.3,2.11-1.29.47-2.89.7-4.8.7ZM324.67,47.94c1.52,0,2.87-.27,4.05-.81,1.17-.54,2.17-1.28,2.99-2.22v-4.05h-7.17c-1.64,0-2.82.31-3.52.92s-1.06,1.56-1.06,2.82.42,2.13,1.28,2.62c.85.48,2,.73,3.43.73Z"/>
      <path class="cls-1" d="M345.17,50.89c-1.41,0-2.52-.37-3.32-1.12s-1.21-2.02-1.21-3.81v-25.17h3.61v24.77c0,.88.15,1.48.44,1.8.29.32.75.48,1.36.48.67,0,1.33-.09,1.98-.26v2.86c-.47.18-.94.29-1.41.35-.47.06-.95.09-1.45.09Z"/>
    </g>
    <polygon class="cls-1" points="17.2 33.29 17.2 1.01 0 1.01 0 51.37 50.36 51.37 50.36 33.29 17.2 33.29"/>
    <rect class="cls-2" x="24.29" y=".93" width="26.09" height="26.09"/>
    <path class="cls-1" d="M63.95,51.45V9.85h8.72v34.88h20.48v6.72h-29.2Z"/>
    <polygon class="cls-1" points="97.87 51.45 97.87 27.29 93.28 27.29 94.05 20.83 106.59 20.83 106.59 51.45 97.87 51.45"/>
    <path class="cls-1" d="M113.37,51.45v-30.62h8.08l.32,2.91c1.25-.95,2.83-1.78,4.75-2.49,1.92-.71,3.93-1.07,6.04-1.07,4.05,0,7,.95,8.85,2.84,1.85,1.9,2.78,4.82,2.78,8.79v19.64h-8.72v-19.19c0-2.07-.42-3.53-1.26-4.39-.84-.86-2.4-1.29-4.68-1.29-1.34,0-2.68.3-4.04.91-1.36.6-2.49,1.36-3.39,2.26v21.71h-8.72Z"/>
    <path class="cls-1" d="M165.24,52.1c-5.47,0-9.66-1.36-12.56-4.07-2.91-2.71-4.36-6.67-4.36-11.89s1.56-9.39,4.68-12.02c3.12-2.63,7.29-3.94,12.5-3.94,2.15,0,4,.15,5.56.45,1.55.3,3.06.8,4.52,1.49v6.27c-1.08-.52-2.33-.93-3.75-1.23-1.42-.3-2.95-.45-4.59-.45-3.27,0-5.77.68-7.49,2.03-1.72,1.36-2.58,3.82-2.58,7.4,0,3.27.79,5.66,2.36,7.17,1.57,1.51,4.12,2.26,7.66,2.26,1.51,0,2.98-.15,4.42-.45,1.44-.3,2.79-.75,4.04-1.36v6.46c-2.89,1.25-6.35,1.87-10.4,1.87Z"/>
    <path class="cls-1" d="M195.8,52.1c-5.73,0-9.93-1.39-12.6-4.17-2.67-2.78-4-6.71-4-11.79s1.35-9.01,4.04-11.79c2.69-2.78,6.88-4.17,12.56-4.17s9.94,1.39,12.63,4.17c2.69,2.78,4.04,6.71,4.04,11.79s-1.34,9.01-4.01,11.79c-2.67,2.78-6.89,4.17-12.66,4.17ZM195.8,44.67c2.8,0,4.8-.63,6.01-1.91,1.21-1.27,1.81-3.48,1.81-6.62s-.6-5.35-1.81-6.62c-1.21-1.27-3.21-1.91-6.01-1.91s-4.74.64-5.94,1.91c-1.21,1.27-1.81,3.48-1.81,6.62s.6,5.35,1.81,6.62c1.21,1.27,3.19,1.91,5.94,1.91Z"/>
    <circle class="cls-2" cx="100.63" cy="8.45" r="8.45"/>
  </g>
</svg>