<?xml version="1.0" encoding="UTF-8"?>
<svg id="Layer_2" data-name="Layer 2" xmlns="http://www.w3.org/2000/svg" viewBox="0 0 94.12 65.8">
  <defs>
    <style>
      .cls-1 {
        fill: #005128;
      }

      .cls-2 {
        fill: #fff;
      }

      .cls-3 {
        fill: #dcdce6;
      }

      .cls-4 {
        fill: #00b67a;
      }
    </style>
  </defs>
  <g id="Ukrasi">
    <path class="cls-2" d="M24.47,8.1h9.42v1.75h-3.71v9.89h-2.03v-9.89h-3.69l.02-1.75ZM33.49,11.31h1.74v1.63h.03c.06-.23.17-.45.33-.67s.34-.42.57-.59c.22-.19.47-.33.74-.43.26-.11.54-.17.82-.17.22,0,.37.02.45.02.08.02.17.03.25.03v1.78c-.12-.03-.26-.05-.4-.06s-.26-.03-.4-.03c-.31,0-.61.06-.88.19s-.51.31-.73.54c-.2.25-.37.54-.5.9s-.19.78-.19,1.24v4h-1.86l.03-8.38ZM46.96,19.74h-1.83v-1.18h-.03c-.23.43-.57.76-1.02,1.02s-.92.39-1.38.39c-1.1,0-1.91-.26-2.41-.82-.5-.54-.74-1.38-.74-2.48v-5.35h1.86v5.17c0,.74.14,1.27.43,1.57.28.31.68.47,1.19.47.39,0,.71-.06.98-.19s.48-.28.64-.48c.17-.2.28-.45.36-.73s.11-.59.11-.92v-4.89h1.86v8.43h-.02ZM50.13,17.04c.06.54.26.92.62,1.15.36.22.79.33,1.29.33.17,0,.37-.02.59-.05s.43-.08.62-.16c.2-.08.36-.19.48-.34s.19-.34.17-.57-.09-.43-.26-.59-.37-.26-.62-.37c-.25-.09-.54-.17-.87-.23s-.65-.14-.99-.22-.68-.17-1.01-.28-.61-.25-.87-.45c-.25-.19-.47-.42-.61-.71-.16-.29-.23-.64-.23-1.07,0-.47.11-.84.34-1.15.22-.31.51-.56.85-.74s.73-.33,1.15-.4.82-.11,1.19-.11c.43,0,.85.05,1.24.14s.76.23,1.07.45c.33.2.59.48.79.81.22.33.34.73.4,1.19h-1.94c-.09-.45-.29-.74-.61-.9-.33-.16-.68-.23-1.1-.23-.12,0-.29.02-.47.03-.19.03-.34.06-.51.12-.16.06-.29.16-.4.26s-.17.26-.17.45c0,.23.08.4.23.54s.36.25.62.36c.25.09.54.17.87.23s.67.14,1.01.22.67.17.99.28.62.25.87.45c.25.19.47.42.62.7s.23.64.23,1.04c0,.5-.11.92-.34,1.27-.23.34-.53.64-.88.85s-.78.37-1.21.48c-.45.09-.88.16-1.32.16-.53,0-1.02-.06-1.47-.19s-.85-.31-1.18-.54c-.33-.25-.59-.54-.78-.92-.19-.36-.29-.79-.31-1.3h1.88v.02h.02ZM56.26,11.31h1.41v-2.55h1.86v2.53h1.68v1.38h-1.68v4.5c0,.2.02.36.03.51.02.14.06.26.11.36.06.09.16.17.26.22.12.05.28.08.5.08.12,0,.26,0,.39-.02s.26-.03.39-.06v1.44c-.2.03-.4.05-.61.06-.2.03-.39.03-.61.03-.5,0-.88-.05-1.18-.14s-.53-.23-.7-.4c-.17-.19-.28-.4-.34-.67s-.09-.59-.11-.93v-4.97h-1.41v-1.41.03ZM62.51,11.31h1.75v1.15h.03c.26-.5.62-.84,1.09-1.06s.96-.33,1.52-.33c.67,0,1.24.11,1.74.36.5.23.9.54,1.23.96.33.4.57.88.73,1.43s.25,1.13.25,1.74-.08,1.12-.22,1.65c-.16.53-.37,1.01-.67,1.41s-.67.73-1.13.98-.99.37-1.61.37c-.26,0-.54-.03-.81-.08s-.53-.12-.78-.23-.48-.25-.68-.42c-.22-.17-.39-.37-.53-.59h-.03v4.21h-1.86v-11.55h-.02ZM69.01,15.53c0-.37-.05-.74-.16-1.1-.09-.36-.25-.67-.45-.95s-.45-.5-.73-.67c-.29-.17-.64-.25-1.01-.25-.78,0-1.37.26-1.77.81-.39.54-.59,1.27-.59,2.17,0,.43.05.82.16,1.18s.25.67.47.93c.2.26.45.47.74.62s.62.23,1.01.23c.43,0,.78-.09,1.07-.26s.53-.4.73-.67c.19-.28.33-.59.4-.95.08-.37.12-.73.12-1.1ZM72.29,8.1h1.86v1.75h-1.86v-1.75ZM72.29,11.31h1.86v8.43h-1.86v-8.43ZM75.81,8.1h1.86v11.64h-1.86v-11.64ZM83.35,19.97c-.67,0-1.27-.11-1.8-.34s-.96-.53-1.33-.92c-.36-.39-.64-.87-.82-1.41s-.29-1.15-.29-1.78.09-1.23.29-1.77c.19-.54.47-1.01.82-1.41.36-.39.81-.7,1.33-.92s1.13-.34,1.8-.34,1.27.11,1.8.34c.53.22.96.53,1.33.92.36.39.64.87.82,1.41s.29,1.13.29,1.77-.09,1.24-.29,1.78-.47,1.01-.82,1.41c-.36.39-.81.7-1.33.92s-1.12.34-1.8.34ZM83.35,18.5c.4,0,.78-.09,1.07-.26.31-.17.54-.4.74-.68s.34-.61.43-.95c.09-.36.14-.71.14-1.09s-.05-.71-.14-1.07-.23-.67-.43-.95-.45-.5-.74-.67c-.31-.17-.67-.26-1.07-.26s-.78.09-1.07.26c-.31.17-.54.4-.74.67-.2.28-.34.59-.43.95s-.14.71-.14,1.07.05.73.14,1.09.23.67.43.95.45.51.74.68c.31.19.67.26,1.07.26ZM88.16,11.31h1.41v-2.55h1.86v2.53h1.68v1.38h-1.68v4.5c0,.2.02.36.03.51.02.14.06.26.11.36.06.09.16.17.26.22.12.05.28.08.5.08.12,0,.26,0,.39-.02s.26-.03.39-.06v1.44c-.2.03-.4.05-.61.06-.2.03-.39.03-.61.03-.5,0-.88-.05-1.18-.14s-.53-.23-.7-.4c-.17-.19-.28-.4-.34-.67s-.09-.59-.11-.93v-4.97h-1.41v-1.41.03Z"/>
    <path class="cls-4" d="M22.3,8.1h-8.52L11.16,0l-2.64,8.1-8.52-.02,6.89,5.01-2.64,8.1,6.89-5.01,6.89,5.01-2.62-8.1,6.89-5Z"/>
    <path class="cls-1" d="M16,14.93l-.59-1.83-4.25,3.09,4.84-1.26Z"/>
    <g id="Trustpilot_ratings_4halfstar-RGB" data-name="Trustpilot ratings 4halfstar-RGB">
      <g>
        <rect id="Rectangle-path" class="cls-4" x="1" y="29.1" width="17.46" height="17.46"/>
        <rect class="cls-4" x="19.91" y="29.1" width="17.46" height="17.46"/>
        <rect class="cls-4" x="38.83" y="29.1" width="17.46" height="17.46"/>
        <rect class="cls-4" x="57.74" y="29.1" width="17.46" height="17.46"/>
        <g id="Half">
          <rect class="cls-3" x="85.39" y="29.1" width="8.73" height="17.46"/>
          <rect class="cls-4" x="76.66" y="29.1" width="8.73" height="17.46"/>
        </g>
        <path id="Shape" class="cls-2" d="M9.73,40.87l2.66-.67,1.11,3.42-3.76-2.75ZM15.84,36.45h-4.67l-1.44-4.4-1.44,4.4H3.62l3.78,2.73-1.44,4.4,3.78-2.73,2.33-1.67,3.76-2.73h0Z"/>
        <path class="cls-2" d="M28.64,40.87l2.66-.67,1.11,3.42-3.76-2.75ZM34.75,36.45h-4.67l-1.44-4.4-1.44,4.4h-4.67l3.78,2.73-1.44,4.4,3.78-2.73,2.33-1.67,3.76-2.73h0Z"/>
        <path class="cls-2" d="M47.56,40.87l2.66-.67,1.11,3.42-3.76-2.75ZM53.67,36.45h-4.67l-1.44-4.4-1.44,4.4h-4.67l3.78,2.73-1.44,4.4,3.78-2.73,2.33-1.67,3.76-2.73h0Z"/>
        <path class="cls-2" d="M66.47,40.87l2.66-.67,1.11,3.42-3.76-2.75ZM72.58,36.45h-4.67l-1.44-4.4-1.44,4.4h-4.67l3.78,2.73-1.44,4.4,3.78-2.73,2.33-1.67,3.76-2.73h0Z"/>
        <path class="cls-2" d="M85.39,40.87l2.66-.67,1.11,3.42-3.76-2.75ZM91.5,36.45h-4.67l-1.44-4.4-1.44,4.4h-4.67l3.78,2.73-1.44,4.4,3.78-2.73,2.33-1.67,3.76-2.73h0Z"/>
      </g>
    </g>
    <g>
      <path class="cls-4" d="M1.72,65.62v-11.19h4.82c.83,0,1.56.15,2.18.45.62.3,1.11.74,1.46,1.31.35.57.52,1.25.52,2.04s-.18,1.48-.53,2.03c-.36.55-.85.97-1.49,1.25s-1.39.42-2.24.42h-2.88v-2.36h2.27c.36,0,.67-.04.92-.13.26-.09.45-.23.59-.43s.2-.45.2-.77-.07-.58-.2-.78-.33-.35-.59-.44c-.25-.1-.56-.14-.92-.14h-1.07v8.76H1.72ZM7.77,65.62l-2.73-5.14h3.23l2.81,5.14h-3.3Z"/>
      <path class="cls-4" d="M14.31,65.76c-.54,0-1.01-.09-1.42-.27s-.73-.45-.96-.81-.35-.82-.35-1.37c0-.46.08-.85.23-1.18.15-.33.37-.59.65-.8.28-.21.61-.37.98-.48.37-.11.78-.18,1.21-.21.47-.04.85-.08,1.13-.13.28-.05.49-.12.62-.22.13-.1.19-.23.19-.39v-.03c0-.15-.04-.27-.12-.37-.08-.1-.19-.18-.33-.23-.14-.05-.31-.08-.5-.08s-.36.03-.52.08-.28.14-.39.25c-.1.11-.17.25-.21.42l-2.72-.27c.08-.47.28-.9.59-1.28.31-.39.74-.69,1.29-.92.55-.23,1.21-.35,2-.35.6,0,1.13.07,1.62.21.48.14.9.34,1.24.59.34.25.61.54.79.88s.27.69.27,1.08v5.75h-2.82v-1.19h-.06c-.17.32-.37.57-.61.76-.24.19-.51.33-.81.42-.3.09-.63.14-1,.14ZM15.28,63.85c.23,0,.45-.05.65-.14.2-.1.37-.23.5-.41s.19-.39.19-.65v-.69c-.08.03-.17.06-.25.09-.09.03-.19.06-.29.08-.1.03-.21.05-.32.07-.11.02-.22.04-.34.06-.24.04-.43.09-.57.18-.15.08-.26.18-.33.3s-.1.25-.1.39c0,.15.04.29.11.39s.18.19.31.24.28.08.45.08Z"/>
      <path class="cls-4" d="M26.05,57.23v2.19h-5.53v-2.19h5.53ZM21.59,55.23h3.02v7.7c0,.18.04.31.14.39.09.09.24.13.44.13.09,0,.22-.01.39-.03.17-.02.29-.04.34-.06l.36,2.15c-.34.1-.67.16-.98.19-.31.03-.59.05-.86.05-.94,0-1.65-.21-2.13-.65-.48-.43-.72-1.06-.72-1.9v-7.97Z"/>
      <path class="cls-4" d="M31.16,65.77c-.9,0-1.67-.17-2.32-.51-.65-.34-1.14-.84-1.49-1.48-.35-.65-.52-1.42-.52-2.33s.17-1.62.52-2.27c.35-.65.84-1.15,1.48-1.51.64-.36,1.39-.54,2.25-.54.64,0,1.21.1,1.72.3s.95.48,1.32.86c.37.37.65.82.84,1.35.2.53.29,1.13.29,1.8v.69h-7.49v-1.65h6.08l-1.41.35c0-.34-.05-.63-.15-.86-.1-.23-.25-.41-.44-.53-.2-.12-.44-.18-.73-.18s-.53.06-.73.18c-.2.12-.34.3-.44.53-.1.23-.15.52-.15.86v1.2c0,.37.06.68.18.92.12.24.28.42.5.54.21.12.47.18.75.18.21,0,.39-.03.56-.09.17-.06.31-.14.43-.25.12-.11.21-.24.27-.39l2.66.39c-.14.5-.39.94-.74,1.3-.36.37-.8.65-1.35.85-.54.2-1.17.3-1.89.3Z"/>
      <path class="cls-4" d="M39.46,65.73c-.6,0-1.14-.16-1.65-.47-.5-.31-.9-.79-1.21-1.42-.3-.64-.45-1.44-.45-2.4,0-1.02.16-1.84.47-2.47s.72-1.1,1.22-1.39c.5-.3,1.03-.44,1.58-.44.42,0,.78.07,1.09.21.31.14.58.33.79.57s.37.5.48.79h.04v-4.27h3.02v11.19h-2.99v-1.38h-.08c-.12.29-.28.54-.5.76-.21.22-.48.4-.78.53-.31.13-.66.2-1.05.2ZM40.57,63.42c.28,0,.51-.08.71-.24.2-.16.35-.39.46-.69.11-.3.16-.65.16-1.05s-.05-.77-.16-1.07c-.11-.3-.26-.53-.46-.69-.2-.16-.44-.24-.71-.24s-.51.08-.71.24-.34.39-.45.69-.15.65-.15,1.07.05.76.15,1.06.25.53.45.68c.2.16.43.24.71.24Z"/>
      <path class="cls-4" d="M49.31,63.88v-2.36l4.5-7.09h2.13v3.15h-1.22l-2.43,3.84v.09h6.65v2.36h-9.64ZM54.75,65.62v-2.46l.08-1.04v-7.69h2.84v11.19h-2.91Z"/>
      <path class="cls-4" d="M61.83,65.8c-.44,0-.81-.15-1.1-.44-.29-.29-.44-.65-.44-1.09s.15-.8.44-1.09c.3-.29.66-.44,1.1-.44s.81.15,1.1.44c.29.29.44.65.44,1.09s-.15.8-.44,1.09c-.3.29-.66.44-1.1.44Z"/>
      <path class="cls-4" d="M69.5,65.77c-.88,0-1.66-.15-2.35-.45-.68-.3-1.22-.72-1.61-1.26-.39-.54-.58-1.15-.58-1.85h3.05c0,.22.07.41.2.57.13.17.31.3.54.39.23.1.49.14.78.14s.53-.05.74-.15.38-.24.5-.41c.12-.18.18-.38.18-.61s-.07-.43-.21-.6c-.14-.17-.33-.31-.58-.41-.25-.1-.54-.15-.87-.15h-1.14v-2.1h1.14c.3,0,.57-.05.8-.15.23-.1.41-.24.54-.41.13-.17.2-.37.2-.6s-.05-.41-.17-.58-.26-.3-.45-.39c-.19-.09-.42-.14-.67-.14-.28,0-.53.05-.75.15s-.39.23-.51.41c-.12.17-.18.37-.18.6h-2.91c0-.69.19-1.29.56-1.82s.89-.94,1.54-1.24c.66-.3,1.41-.45,2.25-.45s1.56.14,2.19.42,1.13.67,1.49,1.16c.36.49.54,1.05.54,1.68s-.22,1.13-.65,1.54c-.43.4-.98.64-1.65.72v.08c.6.06,1.1.21,1.5.44.4.23.7.52.9.88s.3.76.3,1.22c0,.66-.2,1.24-.59,1.75-.4.51-.94.9-1.64,1.19s-1.5.43-2.42.43Z"/>
    </g>
  </g>
</svg>