<svg width="116" height="65" viewBox="0 0 116 65" fill="none" xmlns="http://www.w3.org/2000/svg">
<path d="M29.6074 1.04688C30.3776 1.04688 31.0384 1.16309 31.5898 1.39551C32.1458 1.62337 32.5719 1.96061 32.8682 2.40723C33.1644 2.84928 33.3125 3.39844 33.3125 4.05469C33.3125 4.60156 33.2214 5.06641 33.0391 5.44922C32.8613 5.83203 32.6107 6.14876 32.2871 6.39941C31.9635 6.65007 31.583 6.85286 31.1455 7.00781L30.4619 7.39746H27.2695L27.2559 5.66113H29.6006C29.9469 5.66113 30.2363 5.60417 30.4688 5.49023C30.7012 5.37174 30.8743 5.2054 30.9883 4.99121C31.1022 4.77702 31.1592 4.52409 31.1592 4.23242C31.1592 3.78581 31.0316 3.43262 30.7764 3.17285C30.5257 2.91309 30.1361 2.7832 29.6074 2.7832H28.0078V11H25.8613V1.04688H29.6074ZM29.1289 6.57715L31.3984 6.56348L33.6748 10.8975V11H31.3711L29.1289 6.57715ZM39.4574 6.07129C39.4574 5.73861 39.3754 5.47428 39.2114 5.27832C39.0473 5.08236 38.7852 4.98438 38.4252 4.98438C38.2201 4.98438 38.0424 5.01855 37.892 5.08691C37.7416 5.15527 37.6277 5.25326 37.5502 5.38086C37.4727 5.50391 37.434 5.65658 37.434 5.83887H35.3696C35.3696 5.40137 35.4994 5.00488 35.7592 4.64941C36.019 4.28939 36.3858 4.00228 36.8598 3.78809C37.3338 3.57389 37.892 3.4668 38.5346 3.4668C39.1088 3.4668 39.6215 3.56478 40.0727 3.76074C40.5239 3.95215 40.8793 4.24154 41.1391 4.62891C41.3989 5.01628 41.5287 5.50163 41.5287 6.08496V9.1748C41.5287 9.6123 41.5538 9.95866 41.6039 10.2139C41.6586 10.4691 41.7338 10.6924 41.8295 10.8838V11H39.7514C39.6511 10.7904 39.5759 10.5283 39.5258 10.2139C39.4802 9.89941 39.4574 9.5804 39.4574 9.25684V6.07129ZM39.7377 7.66406H38.685C38.1837 7.66406 37.8214 7.77344 37.5981 7.99219C37.3748 8.20638 37.2631 8.46615 37.2631 8.77148C37.2631 9.00391 37.3451 9.19531 37.5092 9.3457C37.6733 9.49609 37.8943 9.57129 38.1723 9.57129C38.4594 9.57129 38.7055 9.5166 38.9106 9.40723C39.1202 9.29329 39.2797 9.15885 39.3891 9.00391C39.503 8.8444 39.5577 8.69857 39.5532 8.56641L40.0864 9.45508C40.0134 9.63737 39.9155 9.8265 39.7924 10.0225C39.6739 10.2184 39.5213 10.4007 39.3344 10.5693C39.1476 10.738 38.9197 10.8747 38.6508 10.9795C38.3865 11.0843 38.0743 11.1367 37.7143 11.1367C37.2494 11.1367 36.8256 11.0433 36.4428 10.8564C36.06 10.665 35.7569 10.403 35.5336 10.0703C35.3103 9.73307 35.1987 9.34798 35.1987 8.91504C35.1987 8.1403 35.4858 7.54102 36.06 7.11719C36.6342 6.6888 37.4887 6.47461 38.6235 6.47461H39.7241L39.7377 7.66406ZM47.496 5.10742H43.1278V3.60352H47.496V5.10742ZM46.245 1.77832V8.68945C46.245 8.88997 46.27 9.04492 46.3202 9.1543C46.3749 9.26367 46.4592 9.33887 46.5731 9.37988C46.687 9.4209 46.8283 9.44141 46.9969 9.44141C47.12 9.44141 47.2294 9.43685 47.3251 9.42773C47.4208 9.41862 47.5028 9.40723 47.5711 9.39355L47.5643 10.9521C47.3957 11.0114 47.2111 11.057 47.0106 11.0889C46.8146 11.1208 46.5936 11.1367 46.3475 11.1367C45.9055 11.1367 45.5204 11.0638 45.1922 10.918C44.8687 10.7676 44.618 10.5306 44.4403 10.207C44.2671 9.87891 44.1805 9.45052 44.1805 8.92188V1.77832H46.245ZM52.8001 11.1367C52.0208 11.1367 51.3531 10.9749 50.7972 10.6514C50.2457 10.3278 49.8219 9.89486 49.5257 9.35254C49.234 8.81022 49.0882 8.21094 49.0882 7.55469V7.28809C49.0882 6.5498 49.2272 5.89355 49.5052 5.31934C49.7877 4.74056 50.1888 4.28711 50.7083 3.95898C51.2278 3.63086 51.8476 3.4668 52.5677 3.4668C53.2832 3.4668 53.8847 3.61719 54.3723 3.91797C54.86 4.21875 55.2291 4.64258 55.4798 5.18945C55.7304 5.73177 55.8557 6.36979 55.8557 7.10352V7.97852H49.9563V6.59082H53.8255V6.42676C53.8255 6.17155 53.7799 5.94596 53.6888 5.75C53.5976 5.55404 53.4586 5.40137 53.2718 5.29199C53.0895 5.18262 52.8502 5.12793 52.554 5.12793C52.2167 5.12793 51.9456 5.22363 51.7405 5.41504C51.5354 5.60645 51.385 5.86393 51.2893 6.1875C51.1982 6.51107 51.1526 6.87793 51.1526 7.28809V7.55469C51.1526 7.93294 51.2233 8.26562 51.3645 8.55273C51.5058 8.83984 51.7086 9.06543 51.9729 9.22949C52.2373 9.389 52.5563 9.46875 52.93 9.46875C53.2809 9.46875 53.609 9.40495 53.9143 9.27734C54.2197 9.14518 54.4794 8.9401 54.6936 8.66211L55.6917 9.80371C55.4593 10.1364 55.0992 10.4417 54.6116 10.7197C54.1285 10.9977 53.5247 11.1367 52.8001 11.1367ZM62.0622 0.5H64.1403V11H62.2741L62.0622 9.35254V0.5ZM57.4206 7.24707C57.4206 6.49512 57.5323 5.83659 57.7556 5.27148C57.9834 4.70182 58.3116 4.25977 58.74 3.94531C59.1729 3.6263 59.6993 3.4668 60.3191 3.4668C60.8978 3.4668 61.3809 3.63314 61.7683 3.96582C62.1602 4.29395 62.4678 4.74512 62.6911 5.31934C62.919 5.889 63.0762 6.53613 63.1628 7.26074V7.43164C63.0762 8.11979 62.919 8.74414 62.6911 9.30469C62.4678 9.86523 62.1602 10.3118 61.7683 10.6445C61.3809 10.9727 60.8933 11.1367 60.3054 11.1367C59.6947 11.1367 59.1729 10.9749 58.74 10.6514C58.3116 10.3232 57.9834 9.87663 57.7556 9.31152C57.5323 8.74642 57.4206 8.10612 57.4206 7.39062V7.24707ZM59.4851 7.39062C59.4851 7.77344 59.5284 8.12207 59.615 8.43652C59.7015 8.75098 59.8428 9.00163 60.0388 9.18848C60.2347 9.37077 60.4991 9.46191 60.8318 9.46191C61.1599 9.46191 61.4288 9.389 61.6384 9.24316C61.848 9.09277 62.0075 8.88542 62.1169 8.62109C62.2263 8.35677 62.2901 8.05143 62.3083 7.70508V6.99414C62.2992 6.69792 62.2605 6.43587 62.1921 6.20801C62.1283 5.97559 62.0372 5.7819 61.9187 5.62695C61.8047 5.46745 61.6566 5.34668 61.4743 5.26465C61.2966 5.18262 61.087 5.1416 60.8454 5.1416C60.5173 5.1416 60.253 5.23503 60.0525 5.42188C59.8519 5.60417 59.7061 5.85482 59.615 6.17383C59.5284 6.48828 59.4851 6.84603 59.4851 7.24707V7.39062ZM77.647 8.86719H70.4556L70.3599 7.56152L74.4683 1.04688H76.109L74.359 4.06836L72.3902 7.20605H77.647V8.86719ZM76.5465 11H74.4888V1.04688H76.5465V11ZM79.6699 9.98145C79.6699 9.67155 79.7747 9.41178 79.9844 9.20215C80.1986 8.99251 80.4788 8.8877 80.8252 8.8877C81.1807 8.8877 81.4632 8.99251 81.6729 9.20215C81.8825 9.41178 81.9873 9.67155 81.9873 9.98145C81.9873 10.2913 81.8825 10.5511 81.6729 10.7607C81.4632 10.9704 81.1807 11.0752 80.8252 11.0752C80.4788 11.0752 80.1986 10.9704 79.9844 10.7607C79.7747 10.5511 79.6699 10.2913 79.6699 9.98145ZM91.2631 11H84.4067V9.5918L87.6196 6.17383C87.9386 5.82747 88.1892 5.52441 88.3715 5.26465C88.5584 5.00033 88.6905 4.76107 88.768 4.54688C88.8455 4.33268 88.8842 4.13216 88.8842 3.94531C88.8842 3.51237 88.7771 3.17513 88.5629 2.93359C88.3533 2.6875 88.0502 2.56445 87.6537 2.56445C87.3575 2.56445 87.1069 2.63737 86.9018 2.7832C86.6967 2.92448 86.5395 3.11816 86.4301 3.36426C86.3253 3.60579 86.2729 3.88379 86.2729 4.19824H84.2084C84.2084 3.59668 84.3497 3.04753 84.6323 2.55078C84.9148 2.04948 85.3158 1.65072 85.8354 1.35449C86.3595 1.05371 86.9793 0.90332 87.6948 0.90332C88.7566 0.90332 89.5655 1.15625 90.1215 1.66211C90.6775 2.16797 90.9555 2.86296 90.9555 3.74707C90.9555 4.19824 90.8644 4.62891 90.6821 5.03906C90.4998 5.44922 90.24 5.86165 89.9028 6.27637C89.5701 6.69108 89.1782 7.13314 88.727 7.60254L87.0727 9.33887H91.2631V11Z" fill="white"/>
<path d="M39.0073 52H47.3826V53.549H44.0894V62.2566H42.2786V53.549H39V52H39.0073ZM47.0247 54.8302H48.5728V56.2634H48.6021C48.6532 56.0606 48.7482 55.8653 48.8868 55.677C49.0256 55.4889 49.1936 55.3078 49.3906 55.1559C49.5877 54.9966 49.8068 54.8736 50.0479 54.7723C50.2888 54.6781 50.5371 54.6274 50.7853 54.6274C50.9751 54.6274 51.1139 54.6346 51.1869 54.6419C51.2599 54.6491 51.333 54.6635 51.4132 54.6709V56.2488C51.2964 56.2271 51.1796 56.2125 51.0555 56.1981C50.9314 56.1836 50.8146 56.1764 50.6978 56.1764C50.4203 56.1764 50.1574 56.2343 49.9092 56.3429C49.661 56.4515 49.4492 56.618 49.2667 56.8279C49.0842 57.0451 48.9381 57.3057 48.8286 57.6241C48.719 57.9426 48.6679 58.3044 48.6679 58.7171V62.2494H47.0176V54.8302H47.0247ZM59 62.2566H57.379V61.2215H57.3497C57.1452 61.5979 56.8458 61.8946 56.4443 62.119C56.0427 62.3434 55.6338 62.4592 55.2175 62.4592C54.2317 62.4592 53.5163 62.2204 53.0781 61.7354C52.64 61.2504 52.4209 60.5193 52.4209 59.5421V54.8302H54.0712V59.383C54.0712 60.0345 54.1953 60.4977 54.4509 60.7655C54.6991 61.0334 55.057 61.1708 55.5097 61.1708C55.8602 61.1708 56.1449 61.1201 56.3787 61.0115C56.6124 60.903 56.8023 60.7655 56.941 60.5844C57.0871 60.4107 57.1892 60.1936 57.255 59.9476C57.3207 59.7015 57.35 59.4337 57.35 59.1442V54.8374H59.0003V62.2566H59ZM61.8112 59.8752C61.8623 60.353 62.0448 60.686 62.3589 60.8813C62.6802 61.0694 63.0599 61.1708 63.5052 61.1708C63.6585 61.1708 63.8338 61.1564 64.0308 61.1346C64.2279 61.1127 64.4179 61.0622 64.5858 60.9969C64.761 60.9318 64.8998 60.8305 65.0167 60.7002C65.1262 60.57 65.1773 60.4035 65.17 60.1936C65.1628 59.9836 65.0823 59.8099 64.9364 59.6797C64.7903 59.5423 64.6078 59.4409 64.3815 59.354C64.1551 59.2744 63.8995 59.2019 63.6074 59.144C63.3154 59.0861 63.0233 59.021 62.7239 58.9559C62.4173 58.8908 62.1178 58.8038 61.833 58.7099C61.5482 58.6157 61.2926 58.4855 61.0663 58.319C60.8399 58.1597 60.6574 57.9498 60.5259 57.6966C60.387 57.4431 60.3214 57.132 60.3214 56.7556C60.3214 56.3503 60.4236 56.0173 60.6207 55.7423C60.8179 55.4672 61.0734 55.25 61.3727 55.0836C61.6793 54.9171 62.0152 54.8013 62.3876 54.729C62.7601 54.6638 63.1178 54.6276 63.4537 54.6276C63.8407 54.6276 64.2132 54.6711 64.5636 54.7506C64.9141 54.8302 65.2354 54.9606 65.5201 55.1487C65.8049 55.3296 66.0385 55.5686 66.2285 55.8581C66.4184 56.1476 66.5351 56.5023 66.5862 56.9148H64.8629C64.7827 56.524 64.6073 56.2561 64.3225 56.1259C64.0378 55.9883 63.7092 55.9232 63.344 55.9232C63.2272 55.9232 63.0884 55.9304 62.9279 55.9522C62.7672 55.9739 62.6213 56.0101 62.4752 56.0608C62.3365 56.1115 62.2195 56.191 62.1174 56.2924C62.0225 56.3937 61.9713 56.524 61.9713 56.6905C61.9713 56.8932 62.0443 57.0525 62.1831 57.1755C62.3218 57.2985 62.5045 57.3998 62.7308 57.4868C62.9572 57.5663 63.2128 57.6388 63.5048 57.6967C63.7969 57.7546 64.0964 57.8197 64.403 57.8848C64.7023 57.95 64.9945 58.0369 65.2865 58.1309C65.5786 58.225 65.8342 58.3553 66.0606 58.5217C66.2869 58.6882 66.4694 58.8909 66.6082 59.137C66.7469 59.383 66.82 59.6943 66.82 60.0563C66.82 60.4978 66.7178 60.867 66.5133 61.1782C66.3087 61.4821 66.046 61.7355 65.7247 61.9237C65.4033 62.1118 65.0383 62.2566 64.644 62.3435C64.2497 62.4305 63.8554 62.4738 63.4684 62.4738C62.9939 62.4738 62.5557 62.4231 62.154 62.3145C61.7524 62.2059 61.402 62.0467 61.1098 61.8367C60.8177 61.6196 60.5841 61.3517 60.4162 61.0334C60.2482 60.715 60.1605 60.3312 60.146 59.8897H61.8108V59.8752H61.8112ZM67.2583 54.8302H68.5069V52.6008H70.1572V54.8302H71.6469V56.0534H70.1572V60.02C70.1572 60.1937 70.1645 60.3386 70.1791 60.4688C70.1936 60.5918 70.2302 60.7004 70.2813 60.7873C70.3324 60.8743 70.4127 60.9394 70.5222 60.9828C70.6318 61.0263 70.7704 61.048 70.9604 61.048C71.0772 61.048 71.194 61.048 71.3108 61.0407C71.4276 61.0335 71.5444 61.0191 71.6613 60.9901V62.2568C71.4788 62.2784 71.2962 62.293 71.1283 62.3147C70.9531 62.3363 70.7778 62.3437 70.5952 62.3437C70.157 62.3437 69.8066 62.3002 69.5437 62.2207C69.2808 62.1411 69.0691 62.018 68.923 61.8587C68.7697 61.6994 68.6748 61.5041 68.6164 61.2651C68.5653 61.0263 68.5287 60.7512 68.5215 60.4472V56.068H67.2729V54.8303H67.2583V54.8302ZM72.8152 54.8302H74.3778V55.8362H74.4071C74.6407 55.4019 74.962 55.098 75.3782 54.9097C75.7943 54.7216 76.2397 54.6274 76.729 54.6274C77.3205 54.6274 77.8316 54.7288 78.2698 54.9387C78.7079 55.1415 79.0729 55.4237 79.3651 55.7856C79.6572 56.1476 79.869 56.5673 80.0151 57.0451C80.1612 57.5229 80.2341 58.0367 80.2341 58.5796C80.2341 59.0791 80.1685 59.5641 80.0369 60.0273C79.9055 60.4977 79.7083 60.9103 79.4454 61.2722C79.1825 61.6342 78.8466 61.9164 78.4377 62.1336C78.0289 62.3508 77.5542 62.4593 76.9992 62.4593C76.7583 62.4593 76.5172 62.4377 76.2763 62.3942C76.0354 62.3508 75.8016 62.2784 75.5827 62.1843C75.3638 62.0901 75.1518 61.9671 74.9693 61.8151C74.7795 61.663 74.6262 61.4893 74.4948 61.294H74.4655V65H72.8153L72.8152 54.8302ZM78.5837 58.5506C78.5837 58.2176 78.5398 57.8919 78.4523 57.5734C78.3646 57.2548 78.2332 56.9798 78.058 56.7338C77.8828 56.4877 77.6637 56.2922 77.4081 56.1474C77.1451 56.0026 76.8458 55.923 76.5099 55.923C75.8163 55.923 75.2905 56.1618 74.94 56.6396C74.5896 57.1174 74.4144 57.7543 74.4144 58.5504C74.4144 58.9269 74.4582 59.2743 74.5532 59.5928C74.6482 59.9113 74.7795 60.1864 74.9693 60.418C75.1518 60.6496 75.3709 60.8305 75.6265 60.9609C75.8822 61.0983 76.1815 61.1636 76.5174 61.1636C76.8971 61.1636 77.211 61.084 77.4739 60.932C77.7368 60.7799 77.9486 60.5774 78.1166 60.3384C78.2845 60.0924 78.4086 59.8173 78.4817 59.506C78.5471 59.1949 78.5837 58.8763 78.5837 58.5506ZM81.4971 52H83.1474V53.549H81.4971V52ZM81.4971 54.8302H83.1474V62.2566H81.4971V54.8302ZM84.6223 52H86.2726V62.2566H84.6223V52ZM91.3328 62.4593C90.734 62.4593 90.201 62.358 89.7336 62.1626C89.2663 61.9671 88.872 61.6922 88.5434 61.3519C88.2221 61.0045 87.9739 60.5918 87.806 60.1142C87.638 59.6364 87.5504 59.1081 87.5504 58.5363C87.5504 57.9718 87.638 57.4505 87.806 56.9729C87.9739 56.4951 88.2221 56.0826 88.5434 55.7352C88.8648 55.3878 89.2663 55.12 89.7336 54.9245C90.2009 54.729 90.734 54.6278 91.3328 54.6278C91.9316 54.6278 92.4645 54.7291 92.932 54.9245C93.3992 55.12 93.7935 55.3949 94.1221 55.7352C94.4435 56.0826 94.6917 56.4953 94.8596 56.9729C95.0275 57.4505 95.1152 57.9718 95.1152 58.5363C95.1152 59.1081 95.0275 59.6366 94.8596 60.1142C94.6917 60.592 94.4435 61.0045 94.1221 61.3519C93.8008 61.6993 93.3992 61.9671 92.932 62.1626C92.4645 62.358 91.9316 62.4593 91.3328 62.4593ZM91.3328 61.1638C91.698 61.1638 92.0191 61.0842 92.2893 60.9322C92.5595 60.7801 92.7786 60.5776 92.9538 60.3314C93.129 60.0853 93.2531 59.8029 93.3408 59.4917C93.4211 59.1804 93.4649 58.8621 93.4649 58.5363C93.4649 58.2178 93.4211 57.9067 93.3408 57.5881C93.2606 57.2696 93.129 56.9946 92.9538 56.7485C92.7786 56.5025 92.5595 56.307 92.2893 56.1549C92.0191 56.0029 91.6978 55.9233 91.3328 55.9233C90.9678 55.9233 90.6465 56.0029 90.3763 56.1549C90.1061 56.307 89.887 56.5095 89.7118 56.7485C89.5365 56.9946 89.4125 57.2696 89.3248 57.5881C89.2445 57.9067 89.2007 58.2178 89.2007 58.5363C89.2007 58.8621 89.2445 59.1806 89.3248 59.4917C89.405 59.8031 89.5365 60.0853 89.7118 60.3314C89.887 60.5774 90.1061 60.7801 90.3763 60.9322C90.6465 61.0913 90.9676 61.1638 91.3328 61.1638ZM95.5971 54.8302H96.8456V52.6008H98.4959V54.8302H99.9856V56.0534H98.4959V60.02C98.4959 60.1937 98.5032 60.3386 98.5178 60.4688C98.5324 60.5918 98.5689 60.7004 98.62 60.7873C98.6712 60.8743 98.7514 60.9394 98.861 60.9828C98.9705 61.0263 99.1091 61.048 99.2991 61.048C99.4159 61.048 99.5327 61.048 99.6495 61.0407C99.7664 61.0335 99.8832 61.0191 100 60.9901V62.2568C99.8175 62.2784 99.635 62.293 99.467 62.3147C99.2918 62.3363 99.1166 62.3437 98.9339 62.3437C98.4958 62.3437 98.1453 62.3002 97.8824 62.2207C97.6195 62.1411 97.4077 62.018 97.2618 61.8587C97.1084 61.6994 97.0136 61.5041 96.955 61.2651C96.9039 61.0263 96.8673 60.7512 96.86 60.4472V56.068H95.6115V54.8303H95.5971V54.8302Z" fill="white"/>
<path d="M36.8746 52.2232H29.2852L26.9409 45L24.5894 52.2232L17 52.2159L23.1463 56.6846L20.7948 63.9005L26.9409 59.4391L33.08 63.9005L30.7357 56.6846L36.8746 52.2232Z" fill="#00B67A"/>
<path d="M31.2636 58.3182L30.7362 56.6846L26.9414 59.439L31.2636 58.3182Z" fill="#005128"/>
<path d="M21.7445 18.8302H0V40.5747H21.7445V18.8302Z" fill="#00B67A"/>
<path d="M45.3011 18.8302H23.5566V40.5747H45.3011V18.8302Z" fill="#00B67A"/>
<path d="M68.8578 18.8302H47.1133V40.5747H68.8578V18.8302Z" fill="#00B67A"/>
<path d="M92.4144 18.8302H70.6699V40.5747H92.4144V18.8302Z" fill="#00B67A"/>
<path d="M115.971 18.8302H94.2266V40.5747H115.971V18.8302Z" fill="#DCDCE6"/>
<path d="M94.2266 18.8302H105.099L105.062 40.5749H94.2266V18.8302Z" fill="#00B67A"/>
<path d="M10.872 33.4852L14.179 32.6472L15.5608 36.9056L10.872 33.4852ZM18.4828 27.981H12.6617L10.8723 22.4995L9.08284 27.981H3.26172L7.97295 31.3786L6.18353 36.8601L10.8948 33.4625L13.7941 31.3786L18.4828 27.981Z" fill="white"/>
<path d="M34.4289 33.4852L37.7358 32.6472L39.1176 36.9056L34.4289 33.4852ZM42.0394 27.981H36.2183L34.4289 22.4995L32.6395 27.981H26.8184L31.5296 31.3786L29.7402 36.8601L34.4514 33.4625L37.3507 31.3786L42.0394 27.981Z" fill="white"/>
<path d="M57.9855 33.4852L61.2925 32.6472L62.6743 36.9056L57.9855 33.4852ZM65.5963 27.981H59.775L57.9855 22.4995L56.1961 27.981H50.375L55.0862 31.3786L53.2968 36.8601L58.008 33.4625L60.9074 31.3786L65.5963 27.981Z" fill="white"/>
<path d="M81.5422 33.4852L84.8491 32.6472L86.2309 36.9056L81.5422 33.4852ZM89.153 27.981H83.3318L81.5424 22.4995L79.753 27.981H73.9316L78.6429 31.3786L76.8535 36.8601L81.5647 33.4625L84.464 31.3786L89.153 27.981Z" fill="white"/>
<path d="M105.099 33.4852L108.406 32.6472L109.788 36.9056L105.099 33.4852ZM112.709 27.981H106.888L105.099 22.4995L103.309 27.981H97.4883L102.2 31.3786L100.41 36.8601L105.121 33.4625L108.021 31.3786L112.709 27.981Z" fill="white"/>
</svg>
